<svg xmlns="http://www.w3.org/2000/svg" viewBox="0 0 289.13333 289.13333" height="289.133" width="289.133"><path d="M289.128 144.57c0 79.84-64.724 144.563-144.564 144.563C64.724 289.133 0 224.41 0 144.57 0 64.727 64.723.004 144.564.004c79.84 0 144.564 64.723 144.564 144.564" fill="#eda216"/><path d="M111.09 164.93l49.723-130.914c2.222-5.88 9.016-8.613 14.69-5.897l35.892 17.04c5.824 2.77 8.045 9.92 4.834 15.5l-69.675 120.957c-2.186 3.77-6.907 5.246-10.846 3.38l-20.457-9.707c-3.883-1.867-5.693-6.346-4.162-10.36M126.9 235.222c-.11 14.298-11.796 25.814-26.093 25.702-14.278-.112-25.814-11.796-25.703-26.095.094-14.297 11.797-25.813 26.095-25.7 14.295.092 25.812 11.795 25.7 26.092" fill="#fff"/></svg>