<?xml version="1.0" encoding="UTF-8" standalone="no"?>
<svg
   xmlns:dc="http://purl.org/dc/elements/1.1/"
   xmlns:cc="http://creativecommons.org/ns#"
   xmlns:rdf="http://www.w3.org/1999/02/22-rdf-syntax-ns#"
   xmlns:svg="http://www.w3.org/2000/svg"
   xmlns="http://www.w3.org/2000/svg"
   viewBox="0 0 289.13333 289.13333"
   height="289.13333"
   width="289.13333"
   xml:space="preserve"
   id="svg2"
   version="1.1"><metadata
     id="metadata8"><rdf:RDF><cc:Work
         rdf:about=""><dc:format>image/svg+xml</dc:format><dc:type
           rdf:resource="http://purl.org/dc/dcmitype/StillImage" /></cc:Work></rdf:RDF></metadata><defs
     id="defs6" /><g
     transform="matrix(1.3333333,0,0,-1.3333333,0,289.13333)"
     id="g10"><g
       transform="scale(0.1)"
       id="g12"><path
         id="path14"
         style="fill:#eda216;fill-opacity:1;fill-rule:nonzero;stroke:none"
         d="M 2168.46,1084.23 C 2168.46,485.43 1683.03,0 1084.23,0 485.426,0 0,485.43 0,1084.23 c 0,598.81 485.426,1084.23 1084.23,1084.23 598.8,0 1084.23,-485.42 1084.23,-1084.23" /><path
         id="path16"
         style="fill:#ffffff;fill-opacity:1;fill-rule:nonzero;stroke:none"
         d="m 833.184,931.52 372.916,981.86 c 16.66,44.09 67.62,64.6 110.18,44.23 l 269.18,-127.8 c 43.68,-20.79 60.34,-74.41 36.26,-116.26 L 1099.16,806.371 c -16.39,-28.281 -51.8,-39.34 -81.34,-25.34 l -153.425,72.797 c -29.118,14 -42.692,47.594 -31.211,77.692" /><path
         id="path18"
         style="fill:#ffffff;fill-opacity:1;fill-rule:nonzero;stroke:none"
         d="M 951.746,404.332 C 950.914,297.102 863.281,210.73 756.051,211.57 c -107.086,0.84 -193.602,88.469 -192.77,195.711 0.703,107.219 88.477,193.59 195.711,192.75 107.219,-0.699 193.598,-88.472 192.754,-195.699" /></g></g></svg>