<?xml version="1.0" encoding="UTF-8" standalone="no"?>
<svg
   xmlns:dc="http://purl.org/dc/elements/1.1/"
   xmlns:cc="http://creativecommons.org/ns#"
   xmlns:rdf="http://www.w3.org/1999/02/22-rdf-syntax-ns#"
   xmlns:svg="http://www.w3.org/2000/svg"
   xmlns="http://www.w3.org/2000/svg"
   xmlns:sodipodi="http://sodipodi.sourceforge.net/DTD/sodipodi-0.dtd"
   xmlns:inkscape="http://www.inkscape.org/namespaces/inkscape"
   height="32px"
   id="Layer_1"
   style="enable-background:new 0 0 32 32;"
   version="1.1"
   viewBox="0 0 32 32"
   width="32px"
   xml:space="preserve"
   inkscape:version="0.91 r13725"
   sodipodi:docname="pin-mentor.svg"><metadata
     id="metadata11"><rdf:RDF><cc:Work
         rdf:about=""><dc:format>image/svg+xml</dc:format><dc:type
           rdf:resource="http://purl.org/dc/dcmitype/StillImage" /><dc:title></dc:title></cc:Work></rdf:RDF></metadata><defs
     id="defs9" /><sodipodi:namedview
     pagecolor="#ffffff"
     bordercolor="#666666"
     borderopacity="1"
     objecttolerance="10"
     gridtolerance="10"
     guidetolerance="10"
     inkscape:pageopacity="0"
     inkscape:pageshadow="2"
     inkscape:window-width="2480"
     inkscape:window-height="1395"
     id="namedview7"
     showgrid="false"
     inkscape:zoom="11.313709"
     inkscape:cx="-24.097421"
     inkscape:cy="27.60935"
     inkscape:window-x="80"
     inkscape:window-y="1"
     inkscape:window-maximized="1"
     inkscape:current-layer="Layer_1" /><g
     transform="translate(288 144)"
     id="g3"><path
       d="M-272-144c-6.627,0-12,5.373-12,12s10,20,12,20s12-13.373,12-20S-265.373-144-272-144z M-272-124c-4.412,0-8-3.59-8-8   s3.588-8,8-8s8,3.59,8,8S-267.588-124-272-124z"
       id="path5" /></g><g
     id="g10"
     transform="matrix(0.09,0,0,-0.09,6.2597779,21.95395)"><g
       id="g12"
       transform="scale(0.1,0.1)"><path
         d="M 2168.46,1084.23 C 2168.46,485.43 1683.03,0 1084.23,0 485.426,0 0,485.43 0,1084.23 c 0,598.81 485.426,1084.23 1084.23,1084.23 598.8,0 1084.23,-485.42 1084.23,-1084.23"
         style="fill:#eda216;fill-opacity:1;fill-rule:nonzero;stroke:none"
         id="path14"
         inkscape:connector-curvature="0" /><path
         d="m 833.184,931.52 372.916,981.86 c 16.66,44.09 67.62,64.6 110.18,44.23 l 269.18,-127.8 c 43.68,-20.79 60.34,-74.41 36.26,-116.26 L 1099.16,806.371 c -16.39,-28.281 -51.8,-39.34 -81.34,-25.34 l -153.425,72.797 c -29.118,14 -42.692,47.594 -31.211,77.692"
         style="fill:#ffffff;fill-opacity:1;fill-rule:nonzero;stroke:none"
         id="path16"
         inkscape:connector-curvature="0" /><path
         d="M 951.746,404.332 C 950.914,297.102 863.281,210.73 756.051,211.57 c -107.086,0.84 -193.602,88.469 -192.77,195.711 0.703,107.219 88.477,193.59 195.711,192.75 107.219,-0.699 193.598,-88.472 192.754,-195.699"
         style="fill:#ffffff;fill-opacity:1;fill-rule:nonzero;stroke:none"
         id="path18"
         inkscape:connector-curvature="0" /></g></g></svg>